<?xml version="1.0" encoding="UTF-8" standalone="no"?>
<!-- Generator: Adobe Illustrator 17.0.1, SVG Export Plug-In . SVG Version: 6.00 Build 0)  -->

<svg
   xmlns:dc="http://purl.org/dc/elements/1.1/"
   xmlns:cc="http://creativecommons.org/ns#"
   xmlns:rdf="http://www.w3.org/1999/02/22-rdf-syntax-ns#"
   xmlns:svg="http://www.w3.org/2000/svg"
   xmlns="http://www.w3.org/2000/svg"
   xmlns:xlink="http://www.w3.org/1999/xlink"
   xmlns:sodipodi="http://sodipodi.sourceforge.net/DTD/sodipodi-0.dtd"
   xmlns:inkscape="http://www.inkscape.org/namespaces/inkscape"
   inkscape:version="0.92.4 (5da689c313, 2019-01-14)"
   sodipodi:docname="harbour-dictionary.svg"
   id="svg17"
   xml:space="preserve"
   enable-background="new 0 0 86 86"
   viewBox="0 0 86 86"
   height="86px"
   width="86px"
   y="0px"
   x="0px"
   version="1.1"><metadata
   id="metadata23"><rdf:RDF><cc:Work
       rdf:about=""><dc:format>image/svg+xml</dc:format><dc:type
         rdf:resource="http://purl.org/dc/dcmitype/StillImage" /><dc:title></dc:title><dc:creator><cc:Agent><dc:title>Mirian Margiani</dc:title></cc:Agent></dc:creator><dc:rights><cc:Agent><dc:title></dc:title></cc:Agent></dc:rights></cc:Work></rdf:RDF></metadata><defs
   id="defs21"><inkscape:path-effect
     only_selected="false"
     apply_with_weight="true"
     apply_no_weight="true"
     helper_size="0"
     steps="2"
     weight="33.333333"
     is_visible="true"
     id="path-effect865"
     effect="bspline" /><inkscape:path-effect
     effect="bspline"
     id="path-effect857"
     is_visible="true"
     weight="33.333333"
     steps="2"
     helper_size="0"
     apply_no_weight="true"
     apply_with_weight="true"
     only_selected="false" /><inkscape:path-effect
     effect="bspline"
     id="path-effect849"
     is_visible="true"
     weight="33.333333"
     steps="2"
     helper_size="0"
     apply_no_weight="true"
     apply_with_weight="true"
     only_selected="false" /><linearGradient
     inkscape:collect="always"
     id="linearGradient1084"><stop
       style="stop-color:#9b5d00;stop-opacity:1"
       offset="0"
       id="stop1080" /><stop
       style="stop-color:#a96400;stop-opacity:0"
       offset="1"
       id="stop1082" /></linearGradient><linearGradient
     inkscape:collect="always"
     id="linearGradient1056"><stop
       style="stop-color:#d78705;stop-opacity:1"
       offset="0"
       id="stop1052" /><stop
       style="stop-color:#fbad2d;stop-opacity:0;"
       offset="1"
       id="stop1054" /></linearGradient><inkscape:path-effect
     effect="bspline"
     id="path-effect1044"
     is_visible="true"
     weight="33.333333"
     steps="2"
     helper_size="0"
     apply_no_weight="true"
     apply_with_weight="true"
     only_selected="false" /><linearGradient
     y2="12.8067"
     x2="73.1934"
     y1="73.1937"
     x1="12.8064"
     gradientUnits="userSpaceOnUse"
     id="SVGID_1_"
     gradientTransform="translate(-102.19,-56.947895)">
		<stop
   id="stop3"
   style="stop-color:#ed9400;stop-opacity:1"
   offset="0" />
		<stop
   id="stop5"
   style="stop-color:#fcda5f;stop-opacity:1"
   offset="1" />
	</linearGradient><clipPath
     clipPathUnits="userSpaceOnUse"
     id="clipPath1048"><path
       sodipodi:nodetypes="ccsscccscsccsccsssccscssccccsccsccscccsssccccsscc"
       style="fill:#fcc05d;stroke-width:0.31999999"
       d="m -4.4403926,-23.659509 c -2.6505,-1.117155 -4.95745,-3.051689 -5.5712804,-4.671891 -0.20315,-0.53623 -0.45864,-8.117232 -0.65246,-19.36 -0.1752,-10.163259 -0.41285,-20.600142 -0.52811,-23.193075 -0.17161,-3.86062 0.643274,-4.60923 1.004164,-4.71614 0.2423904,-0.0718 1.9716864,-0.42441 4.7876864,-0.62609 2.816,-0.20167 6.56,-0.50043 8.32,-0.66391 1.76,-0.16347 4.928,-0.44712 7.04,-0.63032 2.1119996,-0.1832 6.9745096,-0.6202 10.8055696,-0.97111 8.82328,-0.80816 8.87443,-0.80815 8.87443,0.002 0,0.72065 -0.33134,0.82067 -0.88489,0.26711 -0.2051,-0.20509 -0.9899,-0.3492 -1.744,-0.32024 -1.33679,0.0513 -8.67867,0.66756 -31.1311096,2.61291 -2.112,0.18299 -4.272,0.44826 -4.8,0.58949 -1.4776104,0.39523 -1.2298004,1.2618 0.66732,2.333608 2.40819,1.360538 4.56916,1.657348 9.01892997,1.238756 2.06456003,-0.194215 5.26575003,-0.489484 7.11375003,-0.656154 1.848,-0.166669 8.8319996,-0.807345 15.5199996,-1.423724 6.688,-0.616376 12.43258,-1.120926 12.76574,-1.121216 0.56724,-5.2e-4 0.59245,0.19784 0.39662,3.119463 -0.31661,4.723637 -1.1181,20.872236 -1.81404,36.549411 -0.17553,3.954175 -0.42569,7.295958 -0.55591,7.426182 -0.13023,0.130224 -4.77179,0.819181 -10.31459,1.531011 -5.5428,0.71183 -12.81382,1.658816 -16.1578196,2.104413 -8.58061003,1.143382 -10.59452,1.239363 -12.16,0.579526 z m 15.9543396,-9.400944 c 0.95609,-0.357718 2.32825,-1.077718 3.04923,-1.6 1.49199,-1.08079 1.63643,-1.124595 1.63643,-0.496265 0,0.249331 0.17587,0.511958 0.39083,0.583609 0.68232,0.22744 6.37286,-0.942486 6.80482,-1.399014 0.45597,-0.481891 1.167,-3.335312 4.96964,-19.943331 2.08777,-9.118338 2.48496,-11.26149 2.14931,-11.597136 -0.32459,-0.324596 -1.01944,-0.342137 -3.28316,-0.08288 -3.75158,0.429649 -4.2116,0.64375 -4.57915,2.131194 -0.35336,1.430022 -1.20929,5.280026 -1.48211,6.66659 l -0.19132,0.972365 -3.42943,-0.01236 c -3.18656,-0.01149 -3.57673,0.05783 -5.50943,0.978798 -5.4590396,2.601341 -9.4313296,8.810431 -9.8433796,15.386185 -0.28056,4.477372 0.88166,7.23134 3.56623,8.450454 1.7172,0.779814 3.59855,0.767318 5.7514896,-0.0382 z m -0.22474,-6.974796 c -1.13974,-1.259396 -0.34356,-6.334573 1.38873,-8.852371 1.24656,-1.811823 2.78129,-2.725287 4.95588,-2.949725 1.70103,-0.175561 1.76579,-0.154088 1.76579,0.58549 0,1.23502 -1.93054,9.668929 -2.32091,10.13929 -1.24665,1.502119 -4.8057,2.164394 -5.78949,1.077316 z"
       id="path1050"
       inkscape:connector-curvature="0" /></clipPath><linearGradient
     inkscape:collect="always"
     xlink:href="#linearGradient1056"
     id="linearGradient1058"
     x1="-14.211864"
     y1="-50.834743"
     x2="-2.368644"
     y2="-51.472462"
     gradientUnits="userSpaceOnUse" /><clipPath
     clipPathUnits="userSpaceOnUse"
     id="clipPath1076"><rect
       style="opacity:1;fill:#0a0600;fill-opacity:1;fill-rule:nonzero;stroke:none;stroke-width:18.89763832;stroke-linecap:butt;stroke-linejoin:miter;stroke-miterlimit:4;stroke-dasharray:none;stroke-dashoffset:0;stroke-opacity:1;paint-order:normal"
       id="rect1078"
       width="58.105602"
       height="20.227449"
       x="-16.362331"
       y="-35.622368" /></clipPath><linearGradient
     inkscape:collect="always"
     xlink:href="#linearGradient1084"
     id="linearGradient1086"
     x1="9.5779762"
     y1="-57.514244"
     x2="-7.4201989"
     y2="-14.575"
     gradientUnits="userSpaceOnUse" /><filter
     inkscape:collect="always"
     style="color-interpolation-filters:sRGB"
     id="filter1096"
     x="-0.025994778"
     width="1.0519896"
     y="-0.022289553"
     height="1.0445791"><feGaussianBlur
       inkscape:collect="always"
       stdDeviation="0.51868556"
       id="feGaussianBlur1098" /></filter></defs><sodipodi:namedview
   pagecolor="#ffffff"
   bordercolor="#666666"
   borderopacity="1"
   objecttolerance="10"
   gridtolerance="10"
   guidetolerance="10"
   inkscape:pageopacity="0"
   inkscape:pageshadow="2"
   inkscape:window-width="1920"
   inkscape:window-height="1011"
   id="namedview19"
   showgrid="false"
   inkscape:zoom="9.6511628"
   inkscape:cx="28.181002"
   inkscape:cy="44.47208"
   inkscape:window-x="0"
   inkscape:window-y="0"
   inkscape:window-maximized="1"
   inkscape:current-layer="svg17" />
<g
   id="Layer_2"
   display="none">
</g>
<circle
   style="fill:url(#SVGID_1_)"
   id="circle8"
   r="42.700001"
   cy="-13.947893"
   cx="-59.190002"
   transform="matrix(-0.52607102,-0.85044064,-0.85044064,0.52607102,0,0)" /><g
   id="g12">
		<circle
   style="opacity:0.9;fill:#fdf9f9;fill-opacity:1"
   id="circle10"
   r="32.025002"
   cy="43"
   cx="43" />
	</g>
<path
   sodipodi:nodetypes="cscsscccscsccsccsssccscssccccsccsccscccsssccccsscc"
   style="fill:url(#linearGradient1086);fill-opacity:1;stroke-width:0.31999999;filter:url(#filter1096)"
   d="m -5.0845791,-22.499976 c -2.1598543,-0.910354 -3.8016943,-2.74999 -4.7750139,-4.1335 -0.221105,-0.314286 -0.199497,-5.359749 -0.313125,-5.659672 -0.20315,-0.53623 4.7065251,-7.459934 4.5127051,-18.702702 -0.1752,-10.163259 -6.0611551,-16.136159 -6.1764151,-18.729092 -0.17161,-3.86062 0.643274,-4.60923 1.004164,-4.71614 0.24239,-0.0718 1.9716849,-0.42441 4.7876849,-0.62609 2.816,-0.20167 6.5600002,-0.50043 8.32,-0.66391 1.76,-0.16347 4.928,-0.44712 7.0400003,-0.63032 2.1120008,-0.1832 6.9745108,-0.6202 10.8055708,-0.97111 8.82328,-0.80816 8.87443,-0.80815 8.87443,0.002 0,0.72065 -0.33134,0.82067 -0.88489,0.26711 -0.2051,-0.20509 -0.9899,-0.3492 -1.744,-0.32024 -1.33679,0.0513 -8.67867,0.66756 -31.1311111,2.61291 -2.112,0.18299 -4.272,0.44826 -4.8,0.58949 -1.4776089,0.39523 -1.2297989,1.2618 0.66732,2.333608 2.40819,1.360538 4.56916,1.657348 9.01893025,1.238756 2.06455975,-0.194215 5.26574975,-0.489484 7.11374975,-0.656154 1.8479997,-0.166669 8.8320011,-0.807345 15.5200011,-1.423724 6.688,-0.616376 12.43258,-1.120926 12.76574,-1.121216 0.56724,-5.2e-4 0.59245,0.19784 0.39662,3.119463 -0.31661,4.723637 -1.1181,20.872236 -1.81404,36.549411 -0.17553,3.954175 -0.42569,7.295958 -0.55591,7.426182 -0.13023,0.130224 -4.77179,0.819181 -10.31459,1.531011 -5.5428,0.71183 -12.81382,1.658816 -16.1578211,2.104413 -8.5806099,1.143382 -10.59452,1.239363 -12.16,0.579526 z M 10.869762,-31.90092 c 0.95609,-0.357718 2.32825,-1.077718 3.04923,-1.6 1.49199,-1.08079 1.63643,-1.124595 1.63643,-0.496265 0,0.249331 0.17587,0.511958 0.39083,0.583609 0.68232,0.22744 6.37286,-0.942486 6.80482,-1.399014 0.45597,-0.481891 1.167,-3.335312 4.96964,-19.943331 2.08777,-9.118338 2.48496,-11.26149 2.14931,-11.597136 -0.32459,-0.324596 -1.01944,-0.342137 -3.28316,-0.08288 -3.75158,0.429649 -4.2116,0.64375 -4.57915,2.131194 -0.35336,1.430022 -1.20929,5.280026 -1.48211,6.66659 l -0.19132,0.972365 -3.42943,-0.01236 c -3.18656,-0.01149 -3.57673,0.05783 -5.50943,0.978798 -5.4590411,2.601341 -9.4313311,8.810431 -9.8433811,15.386185 -0.28056,4.477372 0.88166,7.23134 3.56623,8.450454 1.7172,0.779814 3.5985501,0.767318 5.7514911,-0.0382 z m -0.22474,-6.974796 c -1.1397412,-1.259396 -0.34356,-6.334573 1.38873,-8.852371 1.24656,-1.811823 2.78129,-2.725287 4.95588,-2.949725 1.70103,-0.175561 1.76579,-0.154088 1.76579,0.58549 0,1.23502 -1.93054,9.668929 -2.32091,10.13929 -1.24665,1.502119 -4.8057,2.164394 -5.78949,1.077316 z"
   id="path1072"
   inkscape:connector-curvature="0"
   clip-path="url(#clipPath1076)"
   transform="matrix(0.73432,0,0,0.75606306,33.987134,80.78146)" /><path
   style="fill:#fcc05d;stroke-width:0.24194017"
   d="M 55.464844 20.978516 C 54.621306 20.978327 52.944853 21.13199 49.609375 21.4375 C 46.712852 21.70281 43.036258 22.031411 41.439453 22.169922 C 39.842648 22.308432 37.447859 22.522891 36.117188 22.646484 C 34.786516 22.770086 31.955245 22.995963 29.826172 23.148438 C 27.697098 23.30092 26.390293 23.568757 26.207031 23.623047 C 25.934175 23.703877 25.317518 24.268628 25.447266 27.1875 C 25.534409 29.147921 25.713241 37.040544 25.845703 44.724609 C 25.992243 53.224851 26.18625 58.955904 26.339844 59.361328 C 26.803938 60.586303 28.548789 62.047939 30.552734 62.892578 C 31.736336 63.391456 33.258612 63.319546 39.746094 62.455078 C 42.274369 62.118178 47.772184 61.401469 51.962891 60.863281 C 56.153597 60.325092 59.661306 59.805491 59.759766 59.707031 C 59.858221 59.608573 60.048929 57.081403 60.181641 54.091797 C 60.707816 42.238864 61.313357 30.030352 61.552734 26.458984 C 61.700793 24.250053 61.680822 24.099215 61.251953 24.099609 C 61.000063 24.099828 56.658113 24.481247 51.601562 24.947266 C 46.545015 25.413287 41.264392 25.897424 39.867188 26.023438 C 38.469983 26.149451 36.049219 26.372692 34.488281 26.519531 C 31.123975 26.836013 29.490665 26.612636 27.669922 25.583984 C 26.235579 24.773629 26.046896 24.117178 27.164062 23.818359 C 27.563263 23.71158 29.196164 23.511399 30.792969 23.373047 C 47.76843 21.90224 53.319381 21.437227 54.330078 21.398438 C 54.900226 21.376541 55.495323 21.485564 55.650391 21.640625 C 56.06891 22.059152 56.318359 21.982357 56.318359 21.4375 C 56.318359 21.131244 56.308381 20.978704 55.464844 20.978516 z M 40.371094 34.933594 C 40.667485 34.958663 40.954286 35.012602 41.234375 35.095703 C 41.797369 35.256978 42.278137 35.50391 42.673828 35.837891 C 43.072666 36.166426 43.386381 36.574759 43.615234 37.0625 C 43.843368 37.54871 43.951372 38.068121 43.941406 38.621094 C 43.933906 39.034866 43.878402 39.422753 43.775391 39.783203 C 43.676791 40.138753 43.544905 40.452101 43.380859 40.724609 C 43.221204 40.992523 43.026962 41.239682 42.796875 41.464844 C 42.571119 41.685555 42.333915 41.871892 42.083984 42.025391 C 41.834022 42.178909 41.564809 42.314473 41.277344 42.429688 C 40.993967 42.54446 40.717776 42.634476 40.447266 42.701172 C 40.180848 42.763522 39.909752 42.81148 39.634766 42.84375 C 39.151949 42.90041 38.69966 42.948706 38.279297 42.990234 C 37.862657 43.031314 37.518758 43.067615 37.246094 43.099609 C 37.109682 43.115609 36.984327 43.132971 36.869141 43.150391 C 36.758183 43.171221 36.681366 43.186392 36.638672 43.195312 L 36.566406 43.214844 L 36.554688 43.181641 C 36.640388 42.62767 36.682891 41.816784 36.683594 40.748047 L 36.685547 37.755859 C 36.686245 36.694279 36.643348 35.87161 36.556641 35.289062 L 36.583984 35.25 C 36.731909 35.2587 36.957556 35.247004 37.261719 35.214844 C 37.543914 35.184974 37.910714 35.139911 38.361328 35.080078 C 38.811379 35.020318 39.17638 34.975004 39.457031 34.945312 C 39.769652 34.912238 40.074703 34.908525 40.371094 34.933594 z M 39.732422 35.519531 C 39.486197 35.50653 39.223315 35.515499 38.947266 35.544922 C 38.765916 35.564252 38.615207 35.586308 38.494141 35.611328 C 38.37304 35.636348 38.258664 35.670987 38.150391 35.714844 C 38.042101 35.758704 37.962334 35.816415 37.910156 35.890625 C 37.857986 35.964825 37.830428 36.055254 37.830078 36.160156 L 37.810547 42.048828 C 37.810071 42.189954 37.840951 42.288031 37.900391 42.34375 C 37.959821 42.39553 38.087552 42.425104 38.283203 42.433594 C 38.482985 42.437694 38.799399 42.415704 39.232422 42.365234 C 39.512322 42.332604 39.765297 42.292264 39.994141 42.246094 C 40.22712 42.195564 40.460271 42.126612 40.693359 42.041016 C 40.926355 41.955456 41.133797 41.856931 41.316406 41.742188 C 41.499 41.627451 41.671776 41.48535 41.833984 41.318359 C 41.996232 41.151326 42.132008 40.96174 42.240234 40.75 C 42.348586 40.534204 42.434948 40.287394 42.498047 40.005859 C 42.561277 39.720067 42.594522 39.405472 42.599609 39.0625 C 42.605409 38.667584 42.574693 38.296004 42.507812 37.947266 C 42.440812 37.597858 42.320475 37.260687 42.146484 36.9375 C 41.97217 36.609617 41.750885 36.33604 41.480469 36.117188 C 41.209563 35.893884 40.85776 35.729538 40.425781 35.623047 C 40.209377 35.56768 39.978647 35.532533 39.732422 35.519531 z M 47.892578 36.253906 L 47.855469 37.628906 C 49.037165 37.575245 50.082556 37.657568 50.691406 38.181641 C 51.360126 38.757263 51.577529 39.636281 51.630859 40.738281 L 52.933594 40.585938 L 51.503906 42.662109 L 50.208984 40.904297 L 51.167969 40.792969 C 50.427811 38.925337 49.436234 38.236215 47.845703 37.972656 L 47.820312 38.875 L 45.761719 37.800781 L 47.892578 36.253906 z M 54.914062 43.960938 C 55.395471 43.992877 55.792824 44.16924 56.107422 44.492188 C 56.52535 44.921213 56.716745 45.47158 56.683594 46.142578 C 56.650174 46.818976 56.395593 47.405779 55.919922 47.902344 C 55.444976 48.390973 54.850955 48.681241 54.134766 48.773438 C 53.751627 48.822758 53.403223 48.804377 53.089844 48.716797 C 52.78446 48.620457 52.528822 48.475963 52.324219 48.283203 C 52.127773 48.081463 51.968922 47.851334 51.847656 47.59375 C 51.734707 47.327043 51.664358 47.039103 51.634766 46.730469 C 51.628766 46.670209 51.619925 46.561344 51.609375 46.402344 C 51.598815 46.243209 51.586536 46.133639 51.572266 46.074219 C 51.566266 46.013749 51.553493 45.922763 51.533203 45.802734 C 51.512893 45.682624 51.486248 45.59868 51.455078 45.548828 C 51.423908 45.498958 51.38113 45.435132 51.326172 45.357422 C 51.279472 45.278652 51.220081 45.226793 51.146484 45.205078 C 51.073144 45.175628 50.982198 45.156414 50.875 45.146484 C 50.77634 45.127794 50.660438 45.126298 50.527344 45.142578 C 50.061101 45.199768 49.709617 45.429353 49.472656 45.828125 C 49.235966 46.226442 49.108997 46.670091 49.09375 47.162109 C 49.05556 48.394637 49.513526 49.295909 50.462891 49.867188 C 53.835196 49.594585 55.630671 50.280987 55.873047 51.912109 L 54.833984 52.050781 C 54.811864 51.83248 54.741909 51.639439 54.621094 51.470703 C 54.508207 51.300675 54.349445 51.165373 54.144531 51.066406 C 53.93936 50.967316 53.725145 50.883672 53.501953 50.816406 C 53.28663 50.747996 53.024044 50.709079 52.716797 50.697266 C 52.409483 50.677936 52.134429 50.667822 51.890625 50.669922 C 51.646889 50.664522 51.362081 50.677198 51.035156 50.705078 C 50.707887 50.732978 50.454006 50.75761 50.273438 50.78125 C 50.093024 50.79738 49.874054 50.822089 49.619141 50.855469 C 49.265234 50.901809 48.828448 50.99294 48.306641 51.128906 L 48.332031 50.222656 L 49.484375 50.074219 C 49.025301 49.7717 48.675178 49.377197 48.433594 48.892578 C 48.191431 48.398711 48.079043 47.8608 48.095703 47.277344 C 48.115273 46.591966 48.345753 45.969783 48.787109 45.414062 C 49.22899 44.857681 49.813215 44.535549 50.539062 44.447266 C 51.279986 44.357146 51.866174 44.586097 52.298828 45.132812 C 52.827032 44.468801 53.529842 44.082921 54.404297 43.976562 C 54.5833 43.954791 54.753594 43.950291 54.914062 43.960938 z M 40.582031 44.123047 L 41.953125 45.876953 L 40.955078 45.998047 C 41.508728 47.857616 42.486439 48.183314 44.365234 48.490234 L 44.378906 47.828125 L 46.402344 48.818359 L 44.330078 50.320312 L 44.355469 49.021484 C 43.187402 49.095705 42.144896 49.037467 41.523438 48.544922 C 40.899112 48.050103 40.698618 47.113853 40.626953 46.039062 L 39.166016 46.216797 L 40.582031 44.123047 z M 54.648438 44.669922 C 54.544145 44.661217 54.431705 44.665066 54.3125 44.679688 C 53.810286 44.741287 53.408253 44.961819 53.105469 45.34375 C 52.81118 45.724345 52.653562 46.1521 52.634766 46.626953 C 52.616316 47.093077 52.73301 47.473659 52.982422 47.767578 C 53.231555 48.053211 53.599751 48.164158 54.089844 48.101562 C 54.611821 48.034892 55.006772 47.831046 55.273438 47.488281 C 55.540309 47.145253 55.685346 46.723211 55.708984 46.220703 C 55.730884 45.755166 55.622799 45.368338 55.384766 45.0625 C 55.206073 44.826806 54.96131 44.696037 54.648438 44.669922 z "
   id="path898" /><path
   style="fill:url(#linearGradient1058);fill-opacity:1;fill-rule:evenodd;stroke:none;stroke-width:1px;stroke-linecap:butt;stroke-linejoin:miter;stroke-opacity:1"
   d="m -4.7666255,-71.116941 c 0.2580275,0.06451 0.7733764,0.193344 1.137831,0.429087 0.3644546,0.235743 0.5794776,0.57978 0.6869263,8.423032 0.1074486,7.843251 0.1074486,23.16285 0.012463,30.835663 -0.094986,7.672813 -0.9745999,7.732974 -2.0981741,7.807638 -1.1235743,0.07466 -2.828609,0.186929 -4.2759695,-0.72929 -1.4473602,-0.916218 -2.6309472,-2.858514 -3.1774642,-5.728308 -0.546518,-2.869794 -0.455403,-6.666254 -0.425045,-14.37795 0.03036,-7.711696 -1.7e-5,-19.345482 0.486346,-25.190705 0.486363,-5.845223 1.488568,-5.905963 2.004239,-5.678917 0.5156704,0.227045 0.5460697,0.743832 1.3652747,1.484089 0.819205,0.740258 2.421066,1.699921 3.2233069,2.180537 0.8022408,0.480617 0.8022385,0.480617 1.0602659,0.545124 z"
   id="path1042"
   inkscape:connector-curvature="0"
   inkscape:path-effect="#path-effect1044"
   inkscape:original-d="m -5.0246529,-71.181448 c 0.5163491,0.127837 1.0316981,0.256674 1.5460471,0.386512 0.2154346,0.342095 0.4304575,0.686132 0.6441862,1.030698 10e-4,15.342667 10e-4,30.662266 0,45.994899 -0.1836374,0.1056 -1.0696487,0.07223 -1.605973,0.10984 -1.7108222,0.111712 -3.4158569,0.223977 -5.1252854,0.337465 -1.184058,-1.94571 -2.367644,-3.888006 -3.552966,-5.830508 0.09209,-3.796348 0.183203,-7.592808 0.273305,-11.387712 -0.02936,-11.628514 -0.05973,-23.2623 -0.0911,-34.89195 1.003033,-0.06173 2.005238,-0.122468 3.0063562,-0.182203 0.031335,0.514699 0.061735,1.031486 0.091102,1.548729 1.6086924,0.962157 3.2105535,1.92182 4.8143302,2.88423 z"
   clip-path="url(#clipPath1048)"
   transform="matrix(0.75606306,0,0,0.75606306,33.909121,80.78146)" /><g
   id="g892"
   transform="matrix(0.81035112,0,0,0.81035112,-55.816774,3.8559536)"><text
   id="text841"
   y="44.061256"
   x="11.62847"
   style="font-style:normal;font-variant:normal;font-weight:normal;font-stretch:normal;font-size:16px;line-height:20px;font-family:'Linux Biolinum G';-inkscape-font-specification:'Linux Biolinum G';letter-spacing:0px;word-spacing:0px;fill:#000000;fill-opacity:1;stroke:none;stroke-width:1px;stroke-linecap:butt;stroke-linejoin:miter;stroke-opacity:1"
   xml:space="preserve"><tspan
     y="44.061256"
     x="11.62847"
     id="tspan839"
     sodipodi:role="line">D</tspan></text>



<text
   id="text845"
   y="59.883595"
   x="26.688293"
   style="font-style:normal;font-variant:normal;font-weight:normal;font-stretch:normal;font-size:16px;line-height:20px;font-family:'Linux Biolinum G';-inkscape-font-specification:'Linux Biolinum G';letter-spacing:0px;word-spacing:0px;fill:#000000;fill-opacity:1;stroke:none;stroke-width:1px;stroke-linecap:butt;stroke-linejoin:miter;stroke-opacity:1"
   xml:space="preserve"><tspan
     y="59.883595"
     x="26.688293"
     id="tspan843"
     sodipodi:role="line">Ⴃ</tspan></text>



<g
   transform="translate(-1.0109718,4.515674)"
   id="g870"><path
     style="fill:none;fill-rule:evenodd;stroke:#000000;stroke-width:1px;stroke-linecap:butt;stroke-linejoin:miter;stroke-opacity:1"
     d="m 23.352257,41.583054 c 2.479199,0 4.957397,0 6.195997,1.238099 1.238599,1.2381 1.238599,3.717298 1.238599,6.196497"
     id="path847"
     inkscape:connector-curvature="0"
     inkscape:path-effect="#path-effect849"
     inkscape:original-d="m 23.352257,41.583054 c 2.479199,-10e-4 4.957397,-10e-4 7.434596,0 10e-4,2.476199 10e-4,4.955397 0,7.434596"
     transform="translate(2.0556427,-7.7844828)" /><path
     style="fill:none;fill-rule:evenodd;stroke:#000000;stroke-width:1px;stroke-linecap:butt;stroke-linejoin:miter;stroke-opacity:1"
     d="M 34.575638,38.628279 C 33.998692,39.495421 33.42021,40.364871 32.842496,41.233167 32.264782,40.364871 31.6863,39.495421 31.109354,38.628279"
     id="path855"
     inkscape:connector-curvature="0"
     inkscape:path-effect="#path-effect857"
     inkscape:original-d="m 34.575638,38.628279 c -0.576714,0.867296 -1.733142,2.604888 -1.733142,2.604888 0,0 -1.155042,-1.738514 -1.733142,-2.604888"
     sodipodi:nodetypes="ccc" /><path
     sodipodi:nodetypes="ccc"
     inkscape:original-d="m 34.575638,38.628279 c -0.576714,0.867296 -1.733142,2.604888 -1.733142,2.604888 0,0 -1.155042,-1.738514 -1.733142,-2.604888"
     inkscape:path-effect="#path-effect865"
     inkscape:connector-curvature="0"
     id="path863"
     d="M 34.575638,38.628279 C 33.998692,39.495421 33.42021,40.364871 32.842496,41.233167 32.264782,40.364871 31.6863,39.495421 31.109354,38.628279"
     style="fill:none;fill-rule:evenodd;stroke:#000000;stroke-width:1px;stroke-linecap:butt;stroke-linejoin:miter;stroke-opacity:1"
     transform="rotate(90,32.842496,33.798571)" /></g><g
   id="g878"
   transform="rotate(-180,25.468813,43.598587)"><path
     transform="translate(2.0556427,-7.7844828)"
     inkscape:original-d="m 23.352257,41.583054 c 2.479199,-10e-4 4.957397,-10e-4 7.434596,0 10e-4,2.476199 10e-4,4.955397 0,7.434596"
     inkscape:path-effect="#path-effect849"
     inkscape:connector-curvature="0"
     id="path872"
     d="m 23.352257,41.583054 c 2.479199,0 4.957397,0 6.195997,1.238099 1.238599,1.2381 1.238599,3.717298 1.238599,6.196497"
     style="fill:none;fill-rule:evenodd;stroke:#000000;stroke-width:1px;stroke-linecap:butt;stroke-linejoin:miter;stroke-opacity:1" /><path
     sodipodi:nodetypes="ccc"
     inkscape:original-d="m 34.575638,38.628279 c -0.576714,0.867296 -1.733142,2.604888 -1.733142,2.604888 0,0 -1.155042,-1.738514 -1.733142,-2.604888"
     inkscape:path-effect="#path-effect857"
     inkscape:connector-curvature="0"
     id="path874"
     d="M 34.575638,38.628279 C 33.998692,39.495421 33.42021,40.364871 32.842496,41.233167 32.264782,40.364871 31.6863,39.495421 31.109354,38.628279"
     style="fill:none;fill-rule:evenodd;stroke:#000000;stroke-width:1px;stroke-linecap:butt;stroke-linejoin:miter;stroke-opacity:1" /><path
     transform="rotate(90,32.842496,33.798571)"
     style="fill:none;fill-rule:evenodd;stroke:#000000;stroke-width:1px;stroke-linecap:butt;stroke-linejoin:miter;stroke-opacity:1"
     d="M 34.575638,38.628279 C 33.998692,39.495421 33.42021,40.364871 32.842496,41.233167 32.264782,40.364871 31.6863,39.495421 31.109354,38.628279"
     id="path876"
     inkscape:connector-curvature="0"
     inkscape:path-effect="#path-effect865"
     inkscape:original-d="m 34.575638,38.628279 c -0.576714,0.867296 -1.733142,2.604888 -1.733142,2.604888 0,0 -1.155042,-1.738514 -1.733142,-2.604888"
     sodipodi:nodetypes="ccc" /></g></g></svg>